<svg class="diagram-root" style="background: #f5f6f6" xmlns="http://www.w3.org/2000/svg" xmlns:xlink="http://www.w3.org/1999/xlink"><style>.diagram-root { font-family: "Helvetica Neue", sans-serif; font-size: 12px; } .t { overflow: visible; } .t-bg { y: 40; fill: #fff;   } .th { fill: #005aa0;   } .tht { fill: #fff; font-size: 14px;  } .tf { fill: #323c46; overflow: visible; } .tf.pk { fill: #005aa0; font-weight: bold; } .tf.fk { font-weight: bold; } .ty { fill: #adb1b5; font-weight: normal; text-anchor: end; } .r { fill: transparent; stroke: #c3c3c3; stroke-width: 1; } .l { stroke: 1; } .i { fill: #c2c7ce; stroke: #c2c7ce; } .i.ix { fill: #afb3b6; stroke: #000; } .fa { fill: transparent; overflow: visible; } .fa .bg.hover { fill: #f7f7f7; } .c { cy: 12; r: 4; stroke: #d2d2dc; fill: #d2d2dc; } .hr { fill: transparent; stroke: #323c46; stroke-opacity: 0.035; stroke-width: 13; } .dc { stroke: #fa5a3c; fill: #fa5a3c; } .x { stroke: white; stroke-width: 1; } .hl .th { fill: #1b9bff; } .hl .tht {  } .fhl .bg { fill: #e7f4ff; } .fhls .bg {  } .r.hl { stroke: #1b9bff; } .dim { opacity: 0.25; }</style><g class="drawing-wrapper" transform="translate(2, 18) scale(1,1)"><g class="rs"><path d="M 633 301 m -1, 0 a 1,1 0 1,0 2,0 a 1,1 0 1,0 -2,0 M 633 301 m -0.5, 0 a 0.5,0.5 0 1,0 1,0 a 0.5,0.5 0 1,0 -1,0  M633 301 L633 301 621 301 M 633 307 m -1, 0 a 1,1 0 1,0 2,0 a 1,1 0 1,0 -2,0 M 633 307 m -0.5, 0 a 0.5,0.5 0 1,0 1,0 a 0.5,0.5 0 1,0 -1,0  M633 307 L633 307 626 301 633 295 M 633 295 m -1, 0 a 1,1 0 1,0 2,0 a 1,1 0 1,0 -2,0 M 633 295 m -0.5, 0 a 0.5,0.5 0 1,0 1,0 a 0.5,0.5 0 1,0 -1,0  M621 301 Q 578.85 301, 536.69 193 T 452.39 85 M 440.39 85 m -1, 0 a 1,1 0 1,0 2,0 a 1,1 0 1,0 -2,0 M 440.39 85 m -0.5, 0 a 0.5,0.5 0 1,0 1,0 a 0.5,0.5 0 1,0 -1,0  M440.39 85 L440.39 85 452.39 85 M446.39 91 L446.39 91 446.39 79" id="h1139284389" class="r"></path><path d="M 782.39 326 m -1, 0 a 1,1 0 1,0 2,0 a 1,1 0 1,0 -2,0 M 782.39 326 m -0.5, 0 a 0.5,0.5 0 1,0 1,0 a 0.5,0.5 0 1,0 -1,0  M782.39 326 L782.39 326 794.39 326 M 782.39 332 m -1, 0 a 1,1 0 1,0 2,0 a 1,1 0 1,0 -2,0 M 782.39 332 m -0.5, 0 a 0.5,0.5 0 1,0 1,0 a 0.5,0.5 0 1,0 -1,0  M782.39 332 L782.39 332 789.39 326 782.39 320 M 782.39 320 m -1, 0 a 1,1 0 1,0 2,0 a 1,1 0 1,0 -2,0 M 782.39 320 m -0.5, 0 a 0.5,0.5 0 1,0 1,0 a 0.5,0.5 0 1,0 -1,0  M794.39 326 Q 832.55 326, 870.7 256.5 T 947 187 M 959 187 m -1, 0 a 1,1 0 1,0 2,0 a 1,1 0 1,0 -2,0 M 959 187 m -0.5, 0 a 0.5,0.5 0 1,0 1,0 a 0.5,0.5 0 1,0 -1,0  M959 187 L959 187 947 187 M953 193 L953 193 953 181" id="h1607168654" class="r"></path><path d="M 777.39 86 m -1, 0 a 1,1 0 1,0 2,0 a 1,1 0 1,0 -2,0 M 777.39 86 m -0.5, 0 a 0.5,0.5 0 1,0 1,0 a 0.5,0.5 0 1,0 -1,0  M777.39 86 L777.39 86 789.39 86 M 777.39 92 m -1, 0 a 1,1 0 1,0 2,0 a 1,1 0 1,0 -2,0 M 777.39 92 m -0.5, 0 a 0.5,0.5 0 1,0 1,0 a 0.5,0.5 0 1,0 -1,0  M777.39 92 L777.39 92 784.39 86 777.39 80 M 777.39 80 m -1, 0 a 1,1 0 1,0 2,0 a 1,1 0 1,0 -2,0 M 777.39 80 m -0.5, 0 a 0.5,0.5 0 1,0 1,0 a 0.5,0.5 0 1,0 -1,0  M789.39 86 Q 828.8 86, 868.2 136.5 T 947 187 M 959 187 m -1, 0 a 1,1 0 1,0 2,0 a 1,1 0 1,0 -2,0 M 959 187 m -0.5, 0 a 0.5,0.5 0 1,0 1,0 a 0.5,0.5 0 1,0 -1,0  M959 187 L959 187 947 187 M953 193 L953 193 953 181" id="h1397587031" class="r"></path><path d="M 628 111 m -1, 0 a 1,1 0 1,0 2,0 a 1,1 0 1,0 -2,0 M 628 111 m -0.5, 0 a 0.5,0.5 0 1,0 1,0 a 0.5,0.5 0 1,0 -1,0  M628 111 L628 111 616 111 M 628 117 m -1, 0 a 1,1 0 1,0 2,0 a 1,1 0 1,0 -2,0 M 628 117 m -0.5, 0 a 0.5,0.5 0 1,0 1,0 a 0.5,0.5 0 1,0 -1,0  M628 117 L628 117 621 111 628 105 M 628 105 m -1, 0 a 1,1 0 1,0 2,0 a 1,1 0 1,0 -2,0 M 628 105 m -0.5, 0 a 0.5,0.5 0 1,0 1,0 a 0.5,0.5 0 1,0 -1,0  M616 111 Q 575.1 111, 534.19 98 T 452.39 85 M 440.39 85 m -1, 0 a 1,1 0 1,0 2,0 a 1,1 0 1,0 -2,0 M 440.39 85 m -0.5, 0 a 0.5,0.5 0 1,0 1,0 a 0.5,0.5 0 1,0 -1,0  M440.39 85 L440.39 85 452.39 85 M446.39 91 L446.39 91 446.39 79" id="h2286254435" class="r"></path><path d="M 289 110 m -1, 0 a 1,1 0 1,0 2,0 a 1,1 0 1,0 -2,0 M 289 110 m -0.5, 0 a 0.5,0.5 0 1,0 1,0 a 0.5,0.5 0 1,0 -1,0  M289 110 L289 110 277 110 M 289 116 m -1, 0 a 1,1 0 1,0 2,0 a 1,1 0 1,0 -2,0 M 289 116 m -0.5, 0 a 0.5,0.5 0 1,0 1,0 a 0.5,0.5 0 1,0 -1,0  M289 116 L289 116 282 110 289 104 M 289 104 m -1, 0 a 1,1 0 1,0 2,0 a 1,1 0 1,0 -2,0 M 289 104 m -0.5, 0 a 0.5,0.5 0 1,0 1,0 a 0.5,0.5 0 1,0 -1,0  M277 110 Q 253.43 110, 229.85 98.5 T 182.7 87 M 170.7 87 m -1, 0 a 1,1 0 1,0 2,0 a 1,1 0 1,0 -2,0 M 170.7 87 m -0.5, 0 a 0.5,0.5 0 1,0 1,0 a 0.5,0.5 0 1,0 -1,0  M170.7 87 L170.7 87 182.7 87 M176.7 93 L176.7 93 176.7 81" id="h3914978270" class="r"></path><path d="M 634 466 m -1, 0 a 1,1 0 1,0 2,0 a 1,1 0 1,0 -2,0 M 634 466 m -0.5, 0 a 0.5,0.5 0 1,0 1,0 a 0.5,0.5 0 1,0 -1,0  M634 466 L634 466 622 466 M 634 472 m -1, 0 a 1,1 0 1,0 2,0 a 1,1 0 1,0 -2,0 M 634 472 m -0.5, 0 a 0.5,0.5 0 1,0 1,0 a 0.5,0.5 0 1,0 -1,0  M634 472 L634 472 627 466 634 460 M 634 460 m -1, 0 a 1,1 0 1,0 2,0 a 1,1 0 1,0 -2,0 M 634 460 m -0.5, 0 a 0.5,0.5 0 1,0 1,0 a 0.5,0.5 0 1,0 -1,0  M622 466 Q 579.6 466, 537.19 275.5 T 452.39 85 M 440.39 85 m -1, 0 a 1,1 0 1,0 2,0 a 1,1 0 1,0 -2,0 M 440.39 85 m -0.5, 0 a 0.5,0.5 0 1,0 1,0 a 0.5,0.5 0 1,0 -1,0  M440.39 85 L440.39 85 452.39 85 M446.39 91 L446.39 91 446.39 79" id="h3177548053" class="r"></path></g><g class="hrs"></g><g class="ts"><svg width="140.7" height="100" x="30" y="30" id="h311790747" class="t"><rect height="40" width="140.7" class="th"></rect><text x="13" y="25" class="tht">titles</text><rect height="60" width="140.7" class="t-bg"></rect><text x="13" y="61" class="tf pk">title_id<tspan x="127.69999999999999" class="ty">varchar</tspan></text><path d="M7,14A2,2 0 0,1 5,12A2,2 0 0,1 7,10A2,2 0 0,1 9,12A2,2 0 0,1 7,14M12.65,10C11.83,7.67 9.61,6 7, 6A6, 6 0 0, 0 1, 12A6, 6 0 0, 0 7, 18C9.61, 18 11.83, 16.33 12.65, 14H17V18H21V14H23V10H12.65Z" class="i pk" transform="translate(67.68632812499999, 48) scale(0.65)"></path><text x="13" y="86" class="tf">title<tspan x="127.69999999999999" class="ty">varchar</tspan></text></svg><svg width="149.39" height="100" x="959" y="130" id="h475896179" class="t"><rect height="40" width="149.39" class="th"></rect><text x="13" y="25" class="tht">departments</text><rect height="60" width="149.39" class="t-bg"></rect><text x="13" y="61" class="tf pk">dept_no<tspan x="136.39" class="ty">varchar</tspan></text><path d="M7,14A2,2 0 0,1 5,12A2,2 0 0,1 7,10A2,2 0 0,1 9,12A2,2 0 0,1 7,14M12.65,10C11.83,7.67 9.61,6 7, 6A6, 6 0 0, 0 1, 12A6, 6 0 0, 0 7, 18C9.61, 18 11.83, 16.33 12.65, 14H17V18H21V14H23V10H12.65Z" class="i pk" transform="translate(76.37632812499999, 48) scale(0.65)"></path><text x="13" y="86" class="tf">dept_name<tspan x="136.39" class="ty">varchar</tspan></text></svg><svg width="149.39" height="100" x="633" y="244" id="h1090417462" class="t"><rect height="40" width="149.39" class="th"></rect><text x="13" y="25" class="tht">dept_emp</text><rect height="60" width="149.39" class="t-bg"></rect><text x="13" y="61" class="tf pk">emp_no<tspan x="136.39" class="ty">int</tspan></text><path d="M7,14A2,2 0 0,1 5,12A2,2 0 0,1 7,10A2,2 0 0,1 9,12A2,2 0 0,1 7,14M12.65,10C11.83,7.67 9.61,6 7, 6A6, 6 0 0, 0 1, 12A6, 6 0 0, 0 7, 18C9.61, 18 11.83, 16.33 12.65, 14H17V18H21V14H23V10H12.65Z" class="i pk" transform="translate(103.71617187499999, 48) scale(0.65)"></path><text x="13" y="86" class="tf pk">dept_no<tspan x="136.39" class="ty">varchar</tspan></text><path d="M7,14A2,2 0 0,1 5,12A2,2 0 0,1 7,10A2,2 0 0,1 9,12A2,2 0 0,1 7,14M12.65,10C11.83,7.67 9.61,6 7, 6A6, 6 0 0, 0 1, 12A6, 6 0 0, 0 7, 18C9.61, 18 11.83, 16.33 12.65, 14H17V18H21V14H23V10H12.65Z" class="i pk" transform="translate(76.37632812499999, 73) scale(0.65)"></path></svg><svg width="149.39" height="100" x="628" y="29" id="h1676682957" class="t"><rect height="40" width="149.39" class="th"></rect><text x="13" y="25" class="tht">dept_manager</text><rect height="60" width="149.39" class="t-bg"></rect><text x="13" y="61" class="tf pk">dept_no<tspan x="136.39" class="ty">varchar</tspan></text><path d="M7,14A2,2 0 0,1 5,12A2,2 0 0,1 7,10A2,2 0 0,1 9,12A2,2 0 0,1 7,14M12.65,10C11.83,7.67 9.61,6 7, 6A6, 6 0 0, 0 1, 12A6, 6 0 0, 0 7, 18C9.61, 18 11.83, 16.33 12.65, 14H17V18H21V14H23V10H12.65Z" class="i pk" transform="translate(76.37632812499999, 48) scale(0.65)"></path><text x="13" y="86" class="tf pk">emp_no<tspan x="136.39" class="ty">int</tspan></text><path d="M7,14A2,2 0 0,1 5,12A2,2 0 0,1 7,10A2,2 0 0,1 9,12A2,2 0 0,1 7,14M12.65,10C11.83,7.67 9.61,6 7, 6A6, 6 0 0, 0 1, 12A6, 6 0 0, 0 7, 18C9.61, 18 11.83, 16.33 12.65, 14H17V18H21V14H23V10H12.65Z" class="i pk" transform="translate(103.71617187499999, 73) scale(0.65)"></path></svg><svg width="151.39" height="225" x="289" y="28" id="h1639608377" class="t"><rect height="40" width="151.39" class="th"></rect><text x="13" y="25" class="tht">employees</text><rect height="185" width="151.39" class="t-bg"></rect><text x="13" y="61" class="tf pk">emp_no<tspan x="138.39" class="ty">INT</tspan></text><path d="M7,14A2,2 0 0,1 5,12A2,2 0 0,1 7,10A2,2 0 0,1 9,12A2,2 0 0,1 7,14M12.65,10C11.83,7.67 9.61,6 7, 6A6, 6 0 0, 0 1, 12A6, 6 0 0, 0 7, 18C9.61, 18 11.83, 16.33 12.65, 14H17V18H21V14H23V10H12.65Z" class="i pk" transform="translate(99.05992187499999, 48) scale(0.65)"></path><text x="13" y="86" class="tf fk">emp_title_Id<tspan x="138.39" class="ty">varchar</tspan></text><text x="13" y="111" class="tf">birth_date<tspan x="138.39" class="ty">date</tspan></text><text x="13" y="136" class="tf">first_name<tspan x="138.39" class="ty">varchar</tspan></text><text x="13" y="161" class="tf">last_name<tspan x="138.39" class="ty">varchar</tspan></text><text x="13" y="186" class="tf">sex<tspan x="138.39" class="ty">varchar</tspan></text><text x="13" y="211" class="tf">hire_date<tspan x="138.39" class="ty">date</tspan></text></svg><svg width="122.04" height="100" x="634" y="409" id="h2472833127" class="t"><rect height="40" width="122.04" class="th"></rect><text x="13" y="25" class="tht">salaries</text><rect height="60" width="122.04" class="t-bg"></rect><text x="13" y="61" class="tf pk">emp_no<tspan x="109.04" class="ty">int</tspan></text><path d="M7,14A2,2 0 0,1 5,12A2,2 0 0,1 7,10A2,2 0 0,1 9,12A2,2 0 0,1 7,14M12.65,10C11.83,7.67 9.61,6 7, 6A6, 6 0 0, 0 1, 12A6, 6 0 0, 0 7, 18C9.61, 18 11.83, 16.33 12.65, 14H17V18H21V14H23V10H12.65Z" class="i pk" transform="translate(76.366171875, 48) scale(0.65)"></path><text x="13" y="86" class="tf">salary<tspan x="109.04" class="ty">int</tspan></text></svg></g></g><text class="qdbd-link" x="10" y="20">www.quickdatabasediagrams.com</text></svg>